<?xml version="1.0" encoding="UTF-8"?>
<svg xmlns="http://www.w3.org/2000/svg" viewBox="0 0 64 64" width="64" height="64">
  <!-- Lone Star Tick favicon (simplified, crisp at small sizes) -->
  <defs>
    <filter id="shadow" x="-20%" y="-20%" width="140%" height="140%">
      <feDropShadow dx="0" dy="1" stdDeviation="1" flood-color="#000" flood-opacity="0.25"/>
    </filter>
  </defs>
  <g fill="none" stroke-linecap="round" stroke-linejoin="round">
    <!-- Legs -->
    <g stroke="#4b2e22" stroke-width="2.2">
      <!-- left side -->
      <path d="M22 30 L10 24"/>
      <path d="M22 34 L8 34"/>
      <path d="M22 38 L10 44"/>
      <path d="M26 42 L16 52"/>
      <!-- right side -->
      <path d="M42 30 L54 24"/>
      <path d="M42 34 L56 34"/>
      <path d="M42 38 L54 44"/>
      <path d="M38 42 L48 52"/>
    </g>

    <!-- Body -->
    <g filter="url(#shadow)">
      <!-- Abdomen -->
      <ellipse cx="32" cy="38" rx="14" ry="16" fill="#6b3f2a" stroke="#4b2e22" stroke-width="2"/>
      <!-- Cephalothorax -->
      <ellipse cx="32" cy="24" rx="8" ry="7" fill="#6b3f2a" stroke="#4b2e22" stroke-width="2"/>
      <!-- Proboscis -->
      <path d="M32 16 L32 12" stroke="#4b2e22" stroke-width="2"/>
    </g>

    <!-- Lone star marking (small white star on the dorsum) -->
    <g transform="translate(32 34)">
      <polygon points="0,-3 0.9,-0.9 3, -0.9 1.2,0.5 1.8,2.8 0,1.6 -1.8,2.8 -1.2,0.5 -3,-0.9 -0.9,-0.9"
               fill="#ffffff" stroke="#ffffff" stroke-width="0.6"/>
    </g>
  </g>
</svg>

